<svg xmlns="http://www.w3.org/2000/svg" version="1.1" width="2000" height="1500" viewBox="0 0 2000 1500"><rect width="2000" height="1500" fill="#ffffff"></rect><g transform="matrix(0.75,0,0,0.75,249.09092546847273,282.7536437246963)"><svg viewBox="0 0 396 247" data-background-color="#ffffff" preserveAspectRatio="xMidYMid meet" height="1247" width="2000" xmlns="http://www.w3.org/2000/svg"><g id="tight-bounds" transform="matrix(1,0,0,1,0.23999567632318985,-0.09999999999999432)"><svg viewBox="0 0 395.52 247.2" height="247.2" width="395.52"><g><svg></svg></g><g><svg viewBox="0 0 395.52 247.2" height="247.2" width="395.52"><g><path xmlns="http://www.w3.org/2000/svg" d="M55.039 247.2l39.633-68.647h2.045l-38.555 66.779h279.196l-38.555-66.779h2.045l39.633 68.647zM197.76 0l39.633 68.647h-2.044l-37.589-65.106-37.589 65.106-2.044 0z" fill="#50a060" fill-rule="nonzero" stroke="none" stroke-width="1" stroke-linecap="butt" stroke-linejoin="miter" stroke-miterlimit="10" stroke-dasharray="" stroke-dashoffset="0" font-family="none" font-weight="none" font-size="none" text-anchor="none" style="mix-blend-mode: normal" data-fill-palette-color="tertiary"></path></g><g transform="matrix(1,0,0,1,2.842170943040401e-14,84.34796472898003)"><svg viewBox="0 0 395.5199999999999 78.50407054203991" height="78.50407054203991" width="395.5199999999999"><g><svg viewBox="0 0 504.73524051729805 100.18145966480444" height="78.50407054203991" width="395.5199999999999"><g transform="matrix(1,0,0,1,109.21524051729808,30.957525159979674)"><svg viewBox="0 0 395.52 38.26640934484509" height="38.26640934484509" width="395.52"><g><svg viewBox="0 0 395.52 38.26640934484509" height="38.26640934484509" width="395.52"><g><svg viewBox="0 0 395.52 38.26640934484509" height="38.26640934484509" width="395.52"><g transform="matrix(1,0,0,1,0,0)"><svg width="395.52" viewBox="5.5 -37.599998474121094 393.7699890136719 38.099998474121094" height="38.26640934484509" data-palette-color="#50a060"><path d="M5.5-36.55L5.5-36.55Q5.5-37.1 6-37.1L6-37.1 26.65-37.1Q27-37.1 27-36.7L27-36.7 27-35.15Q27-34.7 26.55-34.7L26.55-34.7 8.85-34.7Q8.35-34.7 8.35-34.25L8.35-34.25 8.35-19.7Q8.35-19.3 8.85-19.3L8.85-19.3 23.45-19.3Q23.85-19.3 23.85-18.9L23.85-18.9 23.85-17.3Q23.85-16.95 23.4-16.95L23.4-16.95 8.85-16.95Q8.35-16.95 8.35-16.45L8.35-16.45 8.35-0.4Q8.35 0 7.95 0L7.95 0 6 0Q5.75 0 5.63-0.13 5.5-0.25 5.5-0.55L5.5-0.55 5.5-36.55ZM29.2 0L29.2 0Q29 0 28.87-0.15 28.75-0.3 28.8-0.55L28.8-0.55 42-36.5Q42.1-36.85 42.3-36.98 42.5-37.1 42.85-37.1L42.85-37.1 45-37.1Q45.8-37.1 45.95-36.55L45.95-36.55 59-0.6Q59.1-0.35 58.97-0.18 58.85 0 58.6 0L58.6 0 56.85 0Q56.3 0 56.15-0.45L56.15-0.45 52.25-11.25Q52.2-11.45 52.1-11.53 52-11.6 51.75-11.6L51.75-11.6 35.95-11.6Q35.6-11.6 35.45-11.25L35.45-11.25 31.45-0.4Q31.4-0.15 31.25-0.08 31.1 0 30.85 0L30.85 0 29.2 0ZM36.8-14L50.75-14Q51.3-14 51.15-14.55L51.15-14.55 44.25-33.35Q44.05-33.85 43.87-33.85 43.7-33.85 43.5-33.3L43.5-33.3 36.5-14.45Q36.35-14 36.8-14L36.8-14ZM91.8-0.75L91.8-0.75Q91.95-0.5 91.8-0.25 91.65 0 91.4 0L91.4 0 89.45 0Q89.09 0 88.8-0.5L88.8-0.5 81.84-17.05Q81.65-17.55 80.8-17.55L80.8-17.55 70.5-17.55Q70.14-17.55 70.02-17.4 69.89-17.25 69.89-17L69.89-17 69.89-0.6Q69.89 0 69.34 0L69.34 0 67.59 0Q67.3 0 67.17-0.13 67.05-0.25 67.05-0.5L67.05-0.5 67.05-36.55Q67.05-37.1 67.55-37.1L67.55-37.1 80.7-37.1Q86.2-37.1 89.25-34.77 92.3-32.45 92.3-27.8L92.3-27.8Q92.3-24.8 91.15-22.83 90-20.85 88.27-19.75 86.55-18.65 84.8-18.2L84.8-18.2Q84.45-18.15 84.59-17.8L84.59-17.8 91.8-0.75ZM79-19.9L79-19.9Q84.15-19.9 86.75-21.65 89.34-23.4 89.34-27.45L89.34-27.45Q89.34-31.15 87.15-32.95 84.95-34.75 80.59-34.75L80.59-34.75 70.5-34.75Q69.89-34.75 69.89-34.35L69.89-34.35 69.89-20.4Q69.89-19.9 70.3-19.9L70.3-19.9 79-19.9ZM112.14-36.55L112.14-36.55Q112.14-37.1 112.64-37.1L112.64-37.1 133.29-37.1Q133.64-37.1 133.64-36.7L133.64-36.7 133.64-35.15Q133.64-34.7 133.19-34.7L133.19-34.7 115.49-34.7Q114.99-34.7 114.99-34.25L114.99-34.25 114.99-19.7Q114.99-19.3 115.49-19.3L115.49-19.3 130.09-19.3Q130.49-19.3 130.49-18.9L130.49-18.9 130.49-17.3Q130.49-16.95 130.04-16.95L130.04-16.95 115.49-16.95Q114.99-16.95 114.99-16.45L114.99-16.45 114.99-0.4Q114.99 0 114.59 0L114.59 0 112.64 0Q112.39 0 112.27-0.13 112.14-0.25 112.14-0.55L112.14-0.55 112.14-36.55ZM166.24-0.75L166.24-0.75Q166.39-0.5 166.24-0.25 166.09 0 165.84 0L165.84 0 163.89 0Q163.54 0 163.24-0.5L163.24-0.5 156.29-17.05Q156.09-17.55 155.24-17.55L155.24-17.55 144.94-17.55Q144.59-17.55 144.46-17.4 144.34-17.25 144.34-17L144.34-17 144.34-0.6Q144.34 0 143.79 0L143.79 0 142.04 0Q141.74 0 141.61-0.13 141.49-0.25 141.49-0.5L141.49-0.5 141.49-36.55Q141.49-37.1 141.99-37.1L141.99-37.1 155.14-37.1Q160.64-37.1 163.69-34.77 166.74-32.45 166.74-27.8L166.74-27.8Q166.74-24.8 165.59-22.83 164.44-20.85 162.71-19.75 160.99-18.65 159.24-18.2L159.24-18.2Q158.89-18.15 159.04-17.8L159.04-17.8 166.24-0.75ZM153.44-19.9L153.44-19.9Q158.59-19.9 161.19-21.65 163.79-23.4 163.79-27.45L163.79-27.45Q163.79-31.15 161.59-32.95 159.39-34.75 155.04-34.75L155.04-34.75 144.94-34.75Q144.34-34.75 144.34-34.35L144.34-34.35 144.34-20.4Q144.34-19.9 144.74-19.9L144.74-19.9 153.44-19.9ZM188.64 0.5L188.64 0.5Q183.89 0.5 180.46-1.65 177.04-3.8 175.21-8.03 173.39-12.25 173.39-18.35L173.39-18.35Q173.39-24.6 175.24-28.9 177.09-33.2 180.51-35.4 183.94-37.6 188.69-37.6L188.69-37.6Q193.44-37.6 196.81-35.4 200.19-33.2 202.01-28.93 203.84-24.65 203.84-18.45L203.84-18.45Q203.84-12.35 202.01-8.1 200.19-3.85 196.79-1.68 193.39 0.5 188.64 0.5L188.64 0.5ZM188.74-1.95L188.74-1.95Q194.74-1.95 197.79-6.03 200.84-10.1 200.84-18.45L200.84-18.45Q200.84-26.9 197.74-31.03 194.64-35.15 188.69-35.15L188.69-35.15Q182.64-35.15 179.51-31 176.39-26.85 176.39-18.45L176.39-18.45Q176.39-10.15 179.54-6.05 182.69-1.95 188.74-1.95L188.74-1.95ZM213.58 0L213.58 0Q213.08 0 213.08-0.55L213.08-0.55 213.08-36.55Q213.08-37.1 213.58-37.1L213.58-37.1 215.68-37.1Q215.98-37.1 216.16-37.02 216.33-36.95 216.38-36.65L216.38-36.65 229.23-4.25Q229.38-3.8 229.58-3.83 229.78-3.85 229.98-4.3L229.98-4.3 242.98-36.7Q243.18-37.1 243.58-37.1L243.58-37.1 245.83-37.1Q246.33-37.1 246.33-36.55L246.33-36.55 246.33-0.55Q246.33 0 245.83 0L245.83 0 244.03 0Q243.73 0 243.61-0.13 243.48-0.25 243.48-0.5L243.48-0.5 243.48-30.85Q243.48-31.1 243.41-31.05 243.33-31 243.28-30.85L243.28-30.85 231.18-0.55Q230.98 0 230.33 0L230.33 0 228.73 0Q227.98 0 227.78-0.55L227.78-0.55 215.88-30.6Q215.83-30.75 215.78-30.78 215.73-30.8 215.73-30.6L215.73-30.6 215.73-0.5Q215.73-0.25 215.61-0.13 215.48 0 215.18 0L215.18 0 213.58 0ZM293.03-0.75L293.03-0.75Q293.18-0.5 293.03-0.25 292.88 0 292.63 0L292.63 0 290.68 0Q290.33 0 290.03-0.5L290.03-0.5 283.08-17.05Q282.88-17.55 282.03-17.55L282.03-17.55 271.73-17.55Q271.38-17.55 271.25-17.4 271.13-17.25 271.13-17L271.13-17 271.13-0.6Q271.13 0 270.58 0L270.58 0 268.83 0Q268.53 0 268.4-0.13 268.28-0.25 268.28-0.5L268.28-0.5 268.28-36.55Q268.28-37.1 268.78-37.1L268.78-37.1 281.93-37.1Q287.43-37.1 290.48-34.77 293.53-32.45 293.53-27.8L293.53-27.8Q293.53-24.8 292.38-22.83 291.23-20.85 289.5-19.75 287.78-18.65 286.03-18.2L286.03-18.2Q285.68-18.15 285.83-17.8L285.83-17.8 293.03-0.75ZM280.23-19.9L280.23-19.9Q285.38-19.9 287.98-21.65 290.58-23.4 290.58-27.45L290.58-27.45Q290.58-31.15 288.38-32.95 286.18-34.75 281.83-34.75L281.83-34.75 271.73-34.75Q271.13-34.75 271.13-34.35L271.13-34.35 271.13-20.4Q271.13-19.9 271.53-19.9L271.53-19.9 280.23-19.9ZM315.43 0.5L315.43 0.5Q310.68 0.5 307.25-1.65 303.82-3.8 302-8.03 300.18-12.25 300.18-18.35L300.18-18.35Q300.18-24.6 302.03-28.9 303.88-33.2 307.3-35.4 310.73-37.6 315.48-37.6L315.48-37.6Q320.23-37.6 323.6-35.4 326.98-33.2 328.8-28.93 330.63-24.65 330.63-18.45L330.63-18.45Q330.63-12.35 328.8-8.1 326.98-3.85 323.57-1.68 320.18 0.5 315.43 0.5L315.43 0.5ZM315.53-1.95L315.53-1.95Q321.53-1.95 324.57-6.03 327.63-10.1 327.63-18.45L327.63-18.45Q327.63-26.9 324.53-31.03 321.43-35.15 315.48-35.15L315.48-35.15Q309.43-35.15 306.3-31 303.18-26.85 303.18-18.45L303.18-18.45Q303.18-10.15 306.32-6.05 309.48-1.95 315.53-1.95L315.53-1.95ZM335.27 0L335.27 0Q335.07 0 334.95-0.15 334.82-0.3 334.87-0.55L334.87-0.55 348.07-36.5Q348.17-36.85 348.37-36.98 348.57-37.1 348.92-37.1L348.92-37.1 351.07-37.1Q351.87-37.1 352.02-36.55L352.02-36.55 365.07-0.6Q365.17-0.35 365.05-0.18 364.92 0 364.67 0L364.67 0 362.92 0Q362.37 0 362.22-0.45L362.22-0.45 358.32-11.25Q358.27-11.45 358.17-11.53 358.07-11.6 357.82-11.6L357.82-11.6 342.02-11.6Q341.67-11.6 341.52-11.25L341.52-11.25 337.52-0.4Q337.47-0.15 337.32-0.08 337.17 0 336.92 0L336.92 0 335.27 0ZM342.87-14L356.82-14Q357.37-14 357.22-14.55L357.22-14.55 350.32-33.35Q350.12-33.85 349.95-33.85 349.77-33.85 349.57-33.3L349.57-33.3 342.57-14.45Q342.42-14 342.87-14L342.87-14ZM373.67-37.1L373.67-37.1Q373.82-37.1 374.69-37.1 375.57-37.1 376.67-37.08 377.77-37.05 378.72-37.05 379.67-37.05 379.92-37.05L379.92-37.05Q386.87-37 391.14-34.98 395.42-32.95 397.35-28.98 399.27-25 399.27-18.95L399.27-18.95Q399.27-12.4 397.12-8.2 394.97-4 390.52-2 386.07 0 379.22 0L379.22 0 373.62 0Q373.12 0 373.12-0.55L373.12-0.55 373.12-36.55Q373.12-36.85 373.27-36.98 373.42-37.1 373.67-37.1L373.67-37.1ZM376.47-34.7L376.47-34.7Q375.97-34.7 375.97-34L375.97-34 375.97-2.85Q375.97-2.35 376.57-2.35L376.57-2.35 378.92-2.35Q385.17-2.35 389-3.95 392.82-5.55 394.55-9.13 396.27-12.7 396.27-18.55L396.27-18.55Q396.27-24.9 394.42-28.4 392.57-31.9 388.75-33.3 384.92-34.7 379.07-34.7L379.07-34.7 376.47-34.7Z" opacity="1" transform="matrix(1,0,0,1,0,0)" fill="#50a060" class="undefined-text-0" data-fill-palette-color="primary" id="text-0"></path></svg></g></svg></g></svg></g></svg></g><g><svg viewBox="0 0 100.18145966480444 100.18145966480444" height="100.18145966480444" width="100.18145966480444"><g><svg xmlns="http://www.w3.org/2000/svg" version="1.1" x="0" y="0" viewBox="5 8 88.84400177001953 88.84400177001953" enable-background="new 0 0 100 100" xmlSpace="preserve" height="100.18145966480444" width="100.18145966480444" class="icon-icon-0" data-fill-palette-color="accent" id="icon-0"><g fill="#50a060" data-fill-palette-color="accent"><path d="M49.422 8C24.928 8 5 27.928 5 52.422s19.928 44.422 44.422 44.422 44.422-19.928 44.422-44.422S73.916 8 49.422 8zM49.422 11.122c19.455 0 35.801 13.525 40.152 31.664H52.668c-0.827 0-1.654 0-2.483 0l0.067 2.342 0.068 2.34c0.014 0.492-0.318 0.904-0.812 0.919-0.492 0.015-0.866-0.372-0.866-0.865 0-0.018 0-0.037 0-0.055l0.043-2.34 0.043-2.342c-0.85 0-1.702 0-2.553 0H9.269C13.622 24.647 29.967 11.122 49.422 11.122zM49.474 71.597c0.888 0.028 1.596 0.748 1.624 1.624l0.262 8.586c0.031 1.069-0.809 1.962-1.878 1.996-1.07 0.032-1.964-0.81-1.996-1.88-0.002-0.035-0.001-0.081 0-0.116l0.261-8.586C47.774 72.296 48.547 71.567 49.474 71.597zM47.861 64.723c0-0.028 0-0.058 0-0.086l0.334-8.584c0.02-0.637 0.588-1.138 1.225-1.117 0.613 0.018 1.118 0.515 1.137 1.117l0.271 8.584c0.024 0.781-0.66 1.436-1.44 1.457C48.607 66.119 47.861 65.504 47.861 64.723zM8.78 45.127h33.046c-2.33 1.372-5.378 3.267-8.617 5.5-7.667 5.548-15.001 11.731-21.659 18.248-2.2-5.046-3.428-10.608-3.428-16.453C8.122 49.932 8.355 47.497 8.78 45.127zM47.125 93.656l0.099-3.266c0.038-1.215 1.051-2.169 2.266-2.132 1.167 0.036 2.095 0.98 2.131 2.132l0.099 3.266c-0.76 0.04-1.527 0.065-2.297 0.065C48.651 93.722 47.885 93.696 47.125 93.656zM87.295 68.875c-6.659-6.517-13.992-12.699-21.66-18.248-3.239-2.233-6.286-4.128-8.616-5.5h33.045c0.424 2.37 0.658 4.804 0.658 7.294C90.722 58.267 89.494 63.829 87.295 68.875z" fill="#50a060" data-fill-palette-color="accent"></path></g></svg></g></svg></g></svg></g></svg></g></svg></g><defs></defs></svg><rect width="395.52" height="247.2" fill="none" stroke="none" visibility="hidden"></rect></g></svg></g></svg>